<svg height="225" viewBox="0 0 300 225" width="300" xmlns="http://www.w3.org/2000/svg"><g fill="none" fill-rule="nonzero"><path d="m271.422706 0h-10.439335-219.3283779l-41.6549931 42.3764108v141.7048432 11.558245 29.360501h28.8616905 10.4393349 219.3283786l41.370596-42.37537v-141.7069256-11.5561618-29.3615426z" fill="#41cd52"/><path d="m197.118182 166.277956c-3.990487-4.997709-6.037416-14.473575-6.037416-28.424472v-44.9793846h-14.533191v-17.9084587h14.533191v-28.1121152h20.571631v28.1121152h26.200683v18.0115364h-26.200683v42.5856899c0 7.911999.614078 13.117946 1.739889 15.617842 1.124787 2.602973 4.093857 3.852401 8.699446 3.852401l15.556656-.625755.920094 16.86831c-8.391383 1.664862-14.840231 2.498855-19.34245 2.498855-10.746374 0-18.115316-2.498855-22.10785-7.496564z" fill="#fff"/><path d="m159.967455 193.972554-19.548167 9.267628-16.887159-28.217276c-2.456314.728833-6.243132 1.14635-11.565145 1.14635-19.7528593 0-33.5696261-5.414185-41.347954-16.243597-7.7783279-10.827329-11.6674919-28.006955-11.6674919-51.33064 0-23.4267628 3.9915104-40.8135855 11.8721847-52.1625505 7.8806744-11.3500063 21.5950947-17.0765483 41.1432612-17.0765483 19.548166 0 33.262586 5.6234642 41.040914 16.9724293 7.880674 11.2448461 11.769838 28.63271 11.769838 52.1635915 0 15.512682-1.637542 28.006955-4.810281 37.482821-3.276109 9.578943-8.494753 16.867269-15.863695 21.864978z" fill="#fff"/><path d="m111.875373 57.4468085c-11.796963 0-19.9327995 4.0086178-24.4075097 12.1313434-4.3730122 8.1227255-6.6103673 20.9924985-6.6103673 38.8202991 0 17.72231 2.1356571 30.486593 6.4069714 38.081869 4.2713142 7.595276 12.5088489 11.498403 24.6109056 11.498403 12.102057 0 20.237894-3.797638 24.509208-11.287423 4.169616-7.489786 6.305273-20.254069 6.305273-38.08187 0-17.9332897-2.135657-30.9085526-6.508669-39.0312781-4.373012-8.1227256-12.508849-12.1313434-24.305812-12.1313434" fill="#41cd52"/></g></svg>